<svg width="13" height="13" viewBox="0 0 13 13" fill="none" xmlns="http://www.w3.org/2000/svg"><path d="M6.713 0a3.432 3.432 0 00-3.428 3.428 3.432 3.432 0 003.428 3.427 3.432 3.432 0 003.428-3.427A3.432 3.432 0 006.713 0zm0 6.094a2.669 2.669 0 01-2.666-2.666A2.669 2.669 0 016.713.762a2.669 2.669 0 012.666 2.666 2.669 2.669 0 01-2.666 2.666zm4.265 3.001a4.887 4.887 0 00-3.503-1.478H5.95c-1.32 0-2.564.525-3.503 1.478A4.995 4.995 0 001 12.619c0 .21.17.381.38.381h10.665c.21 0 .38-.17.38-.38a4.996 4.996 0 00-1.447-3.525zm-9.2 3.143c.191-2.16 1.99-3.86 4.173-3.86h1.524c2.183 0 3.982 1.7 4.172 3.86H1.778z" fill="#EA5546"/></svg>