<svg width="24" height="24" viewBox="0 0 24 24" xmlns="http://www.w3.org/2000/svg"><g clip-path="url(#clip0)"><path d="M23.382 17.701l-2.984-2.983a2.112 2.112 0 00-2.983 0l-1.356 1.356a1.6 1.6 0 01-2.26 0L7.92 10.191a1.597 1.597 0 010-2.26l1.356-1.356a2.108 2.108 0 00-.001-2.984L6.293.617A2.111 2.111 0 003.312.615L2.225 1.693c-2.967 2.966-2.967 7.792 0 10.758l9.313 9.319a7.603 7.603 0 0010.76 0l1.084-1.085a2.112 2.112 0 000-2.983zM4.304 1.611a.704.704 0 01.995.001l2.983 2.974a.703.703 0 010 .994l-.497.498-3.976-3.976.495-.49zm8.229 19.165l-9.314-9.32a6.183 6.183 0 01-.388-8.343l3.964 3.964a3.002 3.002 0 00.13 4.109l5.879 5.882a3.002 3.002 0 004.109.131l3.964 3.964a6.17 6.17 0 01-8.344-.387zm9.855-1.085l-.498.497-3.978-3.978.498-.498a.704.704 0 01.994 0l2.984 2.984a.704.704 0 010 .994z" fill="inherit"/></g><defs><clipPath id="clip0"><path fill="inherit" d="M0 0h24v24H0z"/></clipPath></defs></svg>