<?xml version="1.0" encoding="utf-8"?><svg width="24" height="24" xmlns="http://www.w3.org/2000/svg" viewBox="0 0 24 24"><g clip-path="url(#bclip0)" fill-rule="evenodd" clip-rule="evenodd" fill="inherit"><path d="M12.994 10.166L6.491 3.662a2.211 2.211 0 00-3.125.001 2.211 2.211 0 000 3.124L9.87 13.29l.994-.994-.994-.994-5.51-5.51a.804.804 0 011.136-1.135l5.51 5.509.994.994.994-.994zm1.136 1.136l-.994.994.994.995 5.213 5.213a.803.803 0 01-1.135 1.136l-5.214-5.214-.994-.994-.994.994 6.207 6.208a2.21 2.21 0 003.124 0 2.211 2.211 0 000-3.125l-6.207-6.207z"/><path d="M17.51 3.662l-6.504 6.504.994.994.994-.994 5.51-5.51a.803.803 0 011.136 1.136l-5.51 5.51-.994.994.994.995 6.504-6.504a2.211 2.211 0 000-3.124 2.212 2.212 0 00-3.125 0zm-4.516 10.764L12 13.432l-.994.994-5.214 5.214a.804.804 0 01-1.135-1.136L9.87 13.29l.994-.994-.994-.994-6.208 6.207a2.211 2.211 0 00.001 3.125 2.211 2.211 0 003.124 0l6.207-6.208z"/></g><defs><clipPath id="bclip0"><path fill="inherit" d="M0 0h24v24H0z"/></clipPath></defs></svg>