<?xml version="1.0" encoding="utf-8"?><svg width="38" height="38" fill="none" xmlns="http://www.w3.org/2000/svg" viewBox="0 0 38 38"><path d="M36.355 22.752a24.961 24.961 0 00-5.54-.491c1.069-2.705 1.289-5.965.645-9.72a.593.593 0 00-.727-.475 20.975 20.975 0 00-5.67 2.553 18.547 18.547 0 00-5.653-7.957.594.594 0 00-.786.054c-2.633 2.678-4.394 5.43-5.256 8.194a21.041 21.041 0 00-6.1-2.846.593.593 0 00-.728.475c-.644 3.755-.421 7.016.645 9.72a24.961 24.961 0 00-5.54.492.59.59 0 00-.415.798c2.58 6.46 7.61 7.95 11.697 7.95A19.563 19.563 0 0019 30.49c1.959.655 4.009.996 6.074 1.01 4.086 0 9.116-1.49 11.697-7.95a.594.594 0 00-.416-.8zm-6.856-.427c-2.175.134-4.297.72-6.231 1.722a.583.583 0 00-.274.154 10.239 10.239 0 00-3.081 2.737 14.17 14.17 0 00-.303-3.266c.713-3.014 2.544-5.581 5.463-7.634a20.646 20.646 0 015.324-2.635c.507 3.493.2 6.488-.898 8.922zM19.089 7.937c1.045.926 3.824 3.662 4.954 7.39A14.359 14.359 0 0019 21.673a14.151 14.151 0 00-4.616-6.02c.718-2.577 2.292-5.168 4.704-7.715zM7.604 13.4a20.447 20.447 0 015.743 2.939 12.722 12.722 0 015.042 7.33 14.141 14.141 0 00-.303 3.265c-2.405-3.23-6.228-4.342-9.586-4.612-1.099-2.431-1.405-5.427-.896-8.92V13.4zm4.504 16.914c-4.446-.24-7.636-2.441-9.494-6.54 2.692-.459 12.399-1.549 15.6 5.728-1.974.621-4.04.896-6.106.814v-.002zm13.782 0a17.998 17.998 0 01-6.105-.814c3.2-7.274 12.906-6.184 15.602-5.726-1.861 4.099-5.052 6.3-9.497 6.542v-.002z" fill="#EA5546"/><path d="M19.594 10.861h-1.188v1.188h1.188V10.86zM19.594 13.236h-1.188v1.188h1.188v-1.188zM19.594 15.611h-1.188v1.188h1.188V15.61zM8.313 15.61A9.048 9.048 0 009.6 20.098l.988-.66A7.956 7.956 0 019.5 15.61H8.312zM29.688 15.611H28.5a7.904 7.904 0 01-1.088 3.827l.988.659a9.047 9.047 0 001.288-4.486z" fill="#EA5546"/></svg>