<?xml version="1.0" encoding="utf-8"?><svg width="70" height="70" fill="none" xmlns="http://www.w3.org/2000/svg" viewBox="0 0 70 70"><g clip-path="url(#eclip0)" fill="#EA5546"><path d="M35.703 30.645c-4.205.023-7.094-.944-8.898-2.965-1.758-1.97-2.35-4.852-1.809-8.822 1.077-8.232 9.61-17.362 9.986-17.742a.75.75 0 01.52-.245.952.952 0 01.518.182c.38.375 9.845 9.81 10.805 17.65.451 3.78-.191 6.712-1.924 8.71-1.83 2.142-4.94 3.201-9.198 3.232zM35.509 2.62c-1.827 2.093-8.246 9.751-9.152 16.418-.453 3.547.001 6.045 1.474 7.694 1.518 1.74 4.077 2.524 7.855 2.5 3.828-.02 6.565-.937 8.163-2.753 1.447-1.664 2.005-4.222 1.606-7.62-.852-6.285-7.945-14.128-9.946-16.239zM10.215 29.125c-4.061-1.09-6.591-2.786-7.797-5.212-1.175-2.364-.984-5.3.588-8.987C6.22 7.272 16.864.723 17.326.456a.75.75 0 01.567-.1.952.952 0 01.452.313c.268.463 6.9 12.063 5.754 19.88-.564 3.764-1.959 6.422-4.158 7.89-2.332 1.583-5.611 1.782-9.726.686zm7.223-27.08C15.123 3.583 6.906 9.27 4.27 15.46c-1.375 3.3-1.598 5.83-.613 7.81 1.004 2.08 3.265 3.513 6.915 4.488 3.696.992 6.578.832 8.6-.497 1.836-1.223 3.05-3.542 3.563-6.924.84-6.287-3.927-15.727-5.299-18.291z"/><path d="M23.382 47.549c-3.568 2.226-6.535 2.918-9.13 2.144-2.53-.753-4.547-2.896-6.17-6.56-3.403-7.573-.929-19.823-.809-20.344a.75.75 0 01.314-.48c.16-.101.375-.128.537-.118.52.12 13.527 3.185 18.46 9.356 2.367 2.98 3.358 5.813 2.932 8.424-.434 2.784-2.526 5.317-6.134 7.578zM8.512 23.793c-.457 2.74-1.904 12.628.823 18.779 1.475 3.257 3.173 5.145 5.292 5.776 2.206.684 4.796.01 8-1.993 3.246-2.026 5.095-4.243 5.503-6.627.359-2.177-.508-4.647-2.631-7.33-4.024-4.903-14.177-7.858-16.988-8.605zM27.093 68.981a5.345 5.345 0 01-2.77-.74 5.605 5.605 0 01-1.997-1.99 5.292 5.292 0 01-.743-2.759c0-1.016.248-1.938.743-2.765a5.564 5.564 0 011.997-1.975 5.387 5.387 0 012.77-.733c1.02 0 1.934.244 2.74.733a5.386 5.386 0 011.917 1.975c.471.827.707 1.75.707 2.766a5.502 5.502 0 01-2.624 4.747c-.806.494-1.72.741-2.74.741zm0-.871c.845 0 1.6-.21 2.267-.632a4.59 4.59 0 001.581-1.684 4.672 4.672 0 00.583-2.301 4.7 4.7 0 00-.583-2.316A4.533 4.533 0 0029.36 59.5c-.666-.417-1.422-.625-2.267-.625-1.264 0-2.342.453-3.236 1.358-.895.905-1.341 1.992-1.341 3.26 0 .832.206 1.6.62 2.301a4.765 4.765 0 001.661 1.684c.695.422 1.46.632 2.296.632zM41.611 68.662a.433.433 0 01-.131-.32v-7.58c0-.241-.034-.362-.102-.362-.039 0-.107.07-.204.21l-.984 1.416a3447.766 3447.766 0 00-3.739 5.401l-.802 1.177a.444.444 0 01-.364.188.547.547 0 01-.219-.05.44.44 0 01-.197-.182.459.459 0 01-.08-.232v-9.685c0-.126.044-.232.131-.32a.474.474 0 01.35-.13c.136 0 .248.044.335.13a.434.434 0 01.132.32v7.478c0 .251.039.377.116.377.059 0 .141-.068.248-.203l5.452-7.899c.107-.135.228-.203.364-.203.068 0 .136.014.204.044.204.087.307.227.307.42v9.685a.434.434 0 01-.132.32.454.454 0 01-.335.13.474.474 0 01-.35-.13zm-1.02-12.24c.136-.165.204-.315.204-.45l-.03-.117c-.058-.155-.135-.24-.233-.254a1.68 1.68 0 00-.189-.022c-.136 0-.267.073-.394.218a1.632 1.632 0 01-.488.465c-.18.106-.4.16-.663.16-.272 0-.498-.054-.678-.16a1.629 1.629 0 01-.488-.465c-.127-.145-.258-.218-.394-.218h-.073c-.243.04-.364.17-.364.392 0 .136.063.286.19.45.446.514 1.049.77 1.807.77.748 0 1.346-.256 1.793-.77zM51.942 68.662a.433.433 0 01-.13-.32v-7.58c0-.241-.035-.362-.103-.362-.039 0-.107.07-.204.21l-.984 1.416a3447.766 3447.766 0 00-3.739 5.401l-.801 1.177a.444.444 0 01-.365.188.547.547 0 01-.218-.05.44.44 0 01-.197-.182.459.459 0 01-.08-.232v-9.685c0-.126.043-.232.13-.32a.474.474 0 01.35-.13c.136 0 .248.044.336.13a.434.434 0 01.131.32v7.478c0 .251.039.377.117.377.058 0 .14-.068.247-.203l5.452-7.899c.107-.135.229-.203.365-.203.067 0 .136.014.204.044.204.087.306.227.306.42v9.685a.434.434 0 01-.131.32.454.454 0 01-.336.13.474.474 0 01-.35-.13zm-1.02-12.24c.136-.165.204-.315.204-.45l-.029-.117c-.058-.155-.136-.24-.233-.254a1.68 1.68 0 00-.19-.022c-.136 0-.267.073-.393.218a1.632 1.632 0 01-.489.465c-.18.106-.4.16-.663.16-.272 0-.498-.054-.678-.16a1.629 1.629 0 01-.488-.465c-.126-.145-.258-.218-.394-.218h-.072c-.243.04-.365.17-.365.392 0 .136.063.286.19.45.447.514 1.05.77 1.807.77.748 0 1.346-.256 1.793-.77zM60.54 68.981a5.345 5.345 0 01-2.77-.74 5.605 5.605 0 01-1.996-1.99 5.292 5.292 0 01-.744-2.759c0-1.016.248-1.938.744-2.765a5.564 5.564 0 011.996-1.975 5.387 5.387 0 012.77-.733c1.02 0 1.934.244 2.74.733a5.386 5.386 0 011.918 1.975c.47.827.707 1.75.707 2.766 0 1.006-.236 1.926-.707 2.758a5.426 5.426 0 01-1.917 1.99c-.807.493-1.72.74-2.74.74zm0-.871c.846 0 1.601-.21 2.267-.632a4.59 4.59 0 001.582-1.684 4.672 4.672 0 00.583-2.301 4.7 4.7 0 00-.583-2.316 4.533 4.533 0 00-1.582-1.677c-.666-.417-1.421-.625-2.267-.625-1.263 0-2.342.453-3.236 1.358-.894.905-1.341 1.992-1.341 3.26 0 .832.206 1.6.62 2.301a4.765 4.765 0 001.661 1.684c.695.422 1.46.632 2.296.632z"/></g><defs><clipPath id="eclip0"><path fill="#fff" d="M0 0h70v70H0z"/></clipPath></defs></svg>