<?xml version="1.0" encoding="utf-8"?><svg width="18" height="18" fill="none" xmlns="http://www.w3.org/2000/svg" viewBox="0 0 18 18"><path d="M9 0a6.526 6.526 0 00-6.519 6.519c0 4.46 5.834 11.01 6.082 11.286.234.26.64.26.874 0 .248-.276 6.082-6.825 6.082-11.286A6.526 6.526 0 009 0zm0 16.514C7.037 14.182 3.655 9.58 3.655 6.519A5.351 5.351 0 019 1.174a5.351 5.351 0 015.345 5.345c0 3.062-3.381 7.662-5.345 9.995z" fill="#EA5546"/><path d="M9 3.24a3.284 3.284 0 00-3.28 3.279A3.284 3.284 0 009 9.799a3.284 3.284 0 003.28-3.28A3.284 3.284 0 009 3.239zm0 5.385a2.108 2.108 0 01-2.106-2.106c0-1.161.945-2.106 2.106-2.106s2.106.945 2.106 2.106A2.108 2.108 0 019 8.625z" fill="#EA5546"/></svg>