<?xml version="1.0" encoding="utf-8"?><svg width="18" height="18" xmlns="http://www.w3.org/2000/svg" viewBox="0 0 18 18"><g clip-path="url(#iclip0)"><path d="M17.721 1.788c-.22-.269-.549-.417-.927-.417a1.82 1.82 0 00-.647.129L.91 7.316c-.809.309-.918.772-.91 1.02.006.249.141.705.966.968a.64.64 0 00.015.004l3.16.905 1.71 4.887c.233.666.756 1.08 1.365 1.08.384 0 .762-.16 1.093-.465l1.955-1.8 2.835 2.283h.001l.027.023.007.005c.316.245.66.374.996.374.656 0 1.18-.486 1.331-1.238l2.497-12.327c.1-.495.016-.938-.237-1.247zM5.2 10.041l6.097-3.115L7.5 10.96a.526.526 0 00-.128.235L6.64 14.16l-1.441-4.12zm2.395 4.898c-.025.023-.05.044-.076.063l.68-2.75 1.235.994-1.839 1.693zm9.33-12.114l-2.496 12.328c-.024.118-.101.392-.298.392-.098 0-.22-.053-.346-.15l-3.213-2.586-.001-.002-1.912-1.539 5.49-5.834a.527.527 0 00-.623-.831l-9.03 4.613L1.29 8.3l15.232-5.815a.774.774 0 01.27-.06c.033 0 .09.005.112.03.028.035.063.152.02.37z" fill="inherit"/></g><defs><clipPath id="iclip0"><path d="M0 0h18v18H0z"/></clipPath></defs></svg>