<?xml version="1.0" encoding="utf-8"?><svg width="18" height="18" xmlns="http://www.w3.org/2000/svg" viewBox="0 0 18 18"><g clip-path="url(#lclip0)" fill="inherit"><path d="M12.275 8.92a.527.527 0 00-.746 0l-.825.826-2.45-2.45.825-.825a.527.527 0 000-.746L7.082 3.728a.527.527 0 00-.745 0L4.14 5.925a1.942 1.942 0 000 2.743l5.192 5.192c.365.365.852.566 1.371.566.52 0 1.007-.2 1.372-.566l2.197-2.197a.527.527 0 000-.745L12.275 8.92zm-.946 4.194a.878.878 0 01-.626.258.879.879 0 01-.625-.258L4.886 7.922a.886.886 0 010-1.251L6.71 4.847l1.25 1.251-.825.825a.527.527 0 000 .746l3.196 3.195c.206.206.54.206.745 0l.826-.825 1.251 1.251-1.824 1.824z"/><path d="M15.364 2.636A8.942 8.942 0 009 0a8.942 8.942 0 00-6.364 2.636A8.94 8.94 0 000 9c0 1.753.502 3.444 1.453 4.904L.72 16.751a.527.527 0 00.642.642l2.894-.744A8.962 8.962 0 009 18a8.941 8.941 0 006.364-2.636A8.941 8.941 0 0018 9a8.941 8.941 0 00-2.636-6.364zM9 16.946a7.91 7.91 0 01-4.362-1.305.528.528 0 00-.421-.07l-2.252.579.568-2.212a.527.527 0 00-.076-.431A7.899 7.899 0 011.055 9c0-2.122.826-4.117 2.327-5.618A7.894 7.894 0 019 1.055c4.38 0 7.945 3.564 7.945 7.945 0 4.38-3.564 7.945-7.945 7.945z"/></g><defs><clipPath id="lclip0"><path fill="inherit" d="M0 0h18v18H0z"/></clipPath></defs></svg>