<?xml version="1.0" encoding="utf-8"?><svg viewBox="0 0 70 70" xmlns="http://www.w3.org/2000/svg" xmlns:xlink="http://www.w3.org/1999/xlink"><style>:root>svg{display:none}:root>svg:target{display:block}</style><svg viewBox="0 0 22 22" id="arrow" xmlns="http://www.w3.org/2000/svg"><g clip-path="url(#aclip0)"><path d="M10.676.134L3.8 7.01a.458.458 0 10.648.648l6.092-6.092v19.977a.458.458 0 10.917 0V1.565l6.093 6.092a.458.458 0 10.648-.648L11.324.134a.458.458 0 00-.648 0z" fill="inherit"/></g><defs><clipPath id="aclip0"><path fill="inherit" transform="rotate(-90 11 11)" d="M0 0h22v22H0z"/></clipPath></defs></svg><svg viewBox="0 0 24 24" id="close" xmlns="http://www.w3.org/2000/svg"><g clip-path="url(#bclip0)" fill-rule="evenodd" clip-rule="evenodd" fill="inherit"><path d="M12.994 10.166L6.491 3.662a2.211 2.211 0 00-3.125.001 2.211 2.211 0 000 3.124L9.87 13.29l.994-.994-.994-.994-5.51-5.51a.804.804 0 011.136-1.135l5.51 5.509.994.994.994-.994zm1.136 1.136l-.994.994.994.995 5.213 5.213a.803.803 0 01-1.135 1.136l-5.214-5.214-.994-.994-.994.994 6.207 6.208a2.21 2.21 0 003.124 0 2.211 2.211 0 000-3.125l-6.207-6.207z"/><path d="M17.51 3.662l-6.504 6.504.994.994.994-.994 5.51-5.51a.803.803 0 011.136 1.136l-5.51 5.51-.994.994.994.995 6.504-6.504a2.211 2.211 0 000-3.124 2.212 2.212 0 00-3.125 0zm-4.516 10.764L12 13.432l-.994.994-5.214 5.214a.804.804 0 01-1.135-1.136L9.87 13.29l.994-.994-.994-.994-6.208 6.207a2.211 2.211 0 00.001 3.125 2.211 2.211 0 003.124 0l6.207-6.208z"/></g><defs><clipPath id="bclip0"><path fill="inherit" d="M0 0h24v24H0z"/></clipPath></defs></svg><svg fill="none" viewBox="0 0 38 38" id="flower" xmlns="http://www.w3.org/2000/svg"><path d="M36.355 22.752a24.961 24.961 0 00-5.54-.491c1.069-2.705 1.289-5.965.645-9.72a.593.593 0 00-.727-.475 20.975 20.975 0 00-5.67 2.553 18.547 18.547 0 00-5.653-7.957.594.594 0 00-.786.054c-2.633 2.678-4.394 5.43-5.256 8.194a21.041 21.041 0 00-6.1-2.846.593.593 0 00-.728.475c-.644 3.755-.421 7.016.645 9.72a24.961 24.961 0 00-5.54.492.59.59 0 00-.415.798c2.58 6.46 7.61 7.95 11.697 7.95A19.563 19.563 0 0019 30.49c1.959.655 4.009.996 6.074 1.01 4.086 0 9.116-1.49 11.697-7.95a.594.594 0 00-.416-.8zm-6.856-.427c-2.175.134-4.297.72-6.231 1.722a.583.583 0 00-.274.154 10.239 10.239 0 00-3.081 2.737 14.17 14.17 0 00-.303-3.266c.713-3.014 2.544-5.581 5.463-7.634a20.646 20.646 0 015.324-2.635c.507 3.493.2 6.488-.898 8.922zM19.089 7.937c1.045.926 3.824 3.662 4.954 7.39A14.359 14.359 0 0019 21.673a14.151 14.151 0 00-4.616-6.02c.718-2.577 2.292-5.168 4.704-7.715zM7.604 13.4a20.447 20.447 0 015.743 2.939 12.722 12.722 0 015.042 7.33 14.141 14.141 0 00-.303 3.265c-2.405-3.23-6.228-4.342-9.586-4.612-1.099-2.431-1.405-5.427-.896-8.92V13.4zm4.504 16.914c-4.446-.24-7.636-2.441-9.494-6.54 2.692-.459 12.399-1.549 15.6 5.728-1.974.621-4.04.896-6.106.814v-.002zm13.782 0a17.998 17.998 0 01-6.105-.814c3.2-7.274 12.906-6.184 15.602-5.726-1.861 4.099-5.052 6.3-9.497 6.542v-.002z" fill="#EA5546"/><path d="M19.594 10.861h-1.188v1.188h1.188V10.86zM19.594 13.236h-1.188v1.188h1.188v-1.188zM19.594 15.611h-1.188v1.188h1.188V15.61zM8.313 15.61A9.048 9.048 0 009.6 20.098l.988-.66A7.956 7.956 0 019.5 15.61H8.312zM29.688 15.611H28.5a7.904 7.904 0 01-1.088 3.827l.988.659a9.047 9.047 0 001.288-4.486z" fill="#EA5546"/></svg><svg viewBox="0 0 18 18" id="instagram" xmlns="http://www.w3.org/2000/svg"><path d="M13.127 0H4.872A4.878 4.878 0 000 4.872v8.256A4.878 4.878 0 004.872 18h8.256A4.878 4.878 0 0018 13.128V4.872A4.878 4.878 0 0013.127 0zm3.818 13.128a3.821 3.821 0 01-3.818 3.817H4.872a3.821 3.821 0 01-3.817-3.817V4.872a3.821 3.821 0 013.817-3.817h8.256a3.821 3.821 0 013.817 3.817v8.256z" fill="inherit"/><path d="M9 4.078A4.927 4.927 0 004.078 9 4.927 4.927 0 009 13.922 4.927 4.927 0 0013.922 9 4.927 4.927 0 009 4.078zm0 8.789A3.87 3.87 0 015.133 9 3.871 3.871 0 019 5.133 3.87 3.87 0 0112.867 9 3.87 3.87 0 019 12.867zM14.04 2.33a1.456 1.456 0 000 2.909c.801 0 1.454-.652 1.454-1.454 0-.802-.653-1.455-1.455-1.455zm0 1.854a.4.4 0 110-.8.4.4 0 010 .8z" fill="inherit"/></svg><svg fill="none" viewBox="0 0 70 70" id="logo" xmlns="http://www.w3.org/2000/svg"><g clip-path="url(#eclip0)" fill="#EA5546"><path d="M35.703 30.645c-4.205.023-7.094-.944-8.898-2.965-1.758-1.97-2.35-4.852-1.809-8.822 1.077-8.232 9.61-17.362 9.986-17.742a.75.75 0 01.52-.245.952.952 0 01.518.182c.38.375 9.845 9.81 10.805 17.65.451 3.78-.191 6.712-1.924 8.71-1.83 2.142-4.94 3.201-9.198 3.232zM35.509 2.62c-1.827 2.093-8.246 9.751-9.152 16.418-.453 3.547.001 6.045 1.474 7.694 1.518 1.74 4.077 2.524 7.855 2.5 3.828-.02 6.565-.937 8.163-2.753 1.447-1.664 2.005-4.222 1.606-7.62-.852-6.285-7.945-14.128-9.946-16.239zM10.215 29.125c-4.061-1.09-6.591-2.786-7.797-5.212-1.175-2.364-.984-5.3.588-8.987C6.22 7.272 16.864.723 17.326.456a.75.75 0 01.567-.1.952.952 0 01.452.313c.268.463 6.9 12.063 5.754 19.88-.564 3.764-1.959 6.422-4.158 7.89-2.332 1.583-5.611 1.782-9.726.686zm7.223-27.08C15.123 3.583 6.906 9.27 4.27 15.46c-1.375 3.3-1.598 5.83-.613 7.81 1.004 2.08 3.265 3.513 6.915 4.488 3.696.992 6.578.832 8.6-.497 1.836-1.223 3.05-3.542 3.563-6.924.84-6.287-3.927-15.727-5.299-18.291z"/><path d="M23.382 47.549c-3.568 2.226-6.535 2.918-9.13 2.144-2.53-.753-4.547-2.896-6.17-6.56-3.403-7.573-.929-19.823-.809-20.344a.75.75 0 01.314-.48c.16-.101.375-.128.537-.118.52.12 13.527 3.185 18.46 9.356 2.367 2.98 3.358 5.813 2.932 8.424-.434 2.784-2.526 5.317-6.134 7.578zM8.512 23.793c-.457 2.74-1.904 12.628.823 18.779 1.475 3.257 3.173 5.145 5.292 5.776 2.206.684 4.796.01 8-1.993 3.246-2.026 5.095-4.243 5.503-6.627.359-2.177-.508-4.647-2.631-7.33-4.024-4.903-14.177-7.858-16.988-8.605zM27.093 68.981a5.345 5.345 0 01-2.77-.74 5.605 5.605 0 01-1.997-1.99 5.292 5.292 0 01-.743-2.759c0-1.016.248-1.938.743-2.765a5.564 5.564 0 011.997-1.975 5.387 5.387 0 012.77-.733c1.02 0 1.934.244 2.74.733a5.386 5.386 0 011.917 1.975c.471.827.707 1.75.707 2.766a5.502 5.502 0 01-2.624 4.747c-.806.494-1.72.741-2.74.741zm0-.871c.845 0 1.6-.21 2.267-.632a4.59 4.59 0 001.581-1.684 4.672 4.672 0 00.583-2.301 4.7 4.7 0 00-.583-2.316A4.533 4.533 0 0029.36 59.5c-.666-.417-1.422-.625-2.267-.625-1.264 0-2.342.453-3.236 1.358-.895.905-1.341 1.992-1.341 3.26 0 .832.206 1.6.62 2.301a4.765 4.765 0 001.661 1.684c.695.422 1.46.632 2.296.632zM41.611 68.662a.433.433 0 01-.131-.32v-7.58c0-.241-.034-.362-.102-.362-.039 0-.107.07-.204.21l-.984 1.416a3447.766 3447.766 0 00-3.739 5.401l-.802 1.177a.444.444 0 01-.364.188.547.547 0 01-.219-.05.44.44 0 01-.197-.182.459.459 0 01-.08-.232v-9.685c0-.126.044-.232.131-.32a.474.474 0 01.35-.13c.136 0 .248.044.335.13a.434.434 0 01.132.32v7.478c0 .251.039.377.116.377.059 0 .141-.068.248-.203l5.452-7.899c.107-.135.228-.203.364-.203.068 0 .136.014.204.044.204.087.307.227.307.42v9.685a.434.434 0 01-.132.32.454.454 0 01-.335.13.474.474 0 01-.35-.13zm-1.02-12.24c.136-.165.204-.315.204-.45l-.03-.117c-.058-.155-.135-.24-.233-.254a1.68 1.68 0 00-.189-.022c-.136 0-.267.073-.394.218a1.632 1.632 0 01-.488.465c-.18.106-.4.16-.663.16-.272 0-.498-.054-.678-.16a1.629 1.629 0 01-.488-.465c-.127-.145-.258-.218-.394-.218h-.073c-.243.04-.364.17-.364.392 0 .136.063.286.19.45.446.514 1.049.77 1.807.77.748 0 1.346-.256 1.793-.77zM51.942 68.662a.433.433 0 01-.13-.32v-7.58c0-.241-.035-.362-.103-.362-.039 0-.107.07-.204.21l-.984 1.416a3447.766 3447.766 0 00-3.739 5.401l-.801 1.177a.444.444 0 01-.365.188.547.547 0 01-.218-.05.44.44 0 01-.197-.182.459.459 0 01-.08-.232v-9.685c0-.126.043-.232.13-.32a.474.474 0 01.35-.13c.136 0 .248.044.336.13a.434.434 0 01.131.32v7.478c0 .251.039.377.117.377.058 0 .14-.068.247-.203l5.452-7.899c.107-.135.229-.203.365-.203.067 0 .136.014.204.044.204.087.306.227.306.42v9.685a.434.434 0 01-.131.32.454.454 0 01-.336.13.474.474 0 01-.35-.13zm-1.02-12.24c.136-.165.204-.315.204-.45l-.029-.117c-.058-.155-.136-.24-.233-.254a1.68 1.68 0 00-.19-.022c-.136 0-.267.073-.393.218a1.632 1.632 0 01-.489.465c-.18.106-.4.16-.663.16-.272 0-.498-.054-.678-.16a1.629 1.629 0 01-.488-.465c-.126-.145-.258-.218-.394-.218h-.072c-.243.04-.365.17-.365.392 0 .136.063.286.19.45.447.514 1.05.77 1.807.77.748 0 1.346-.256 1.793-.77zM60.54 68.981a5.345 5.345 0 01-2.77-.74 5.605 5.605 0 01-1.996-1.99 5.292 5.292 0 01-.744-2.759c0-1.016.248-1.938.744-2.765a5.564 5.564 0 011.996-1.975 5.387 5.387 0 012.77-.733c1.02 0 1.934.244 2.74.733a5.386 5.386 0 011.918 1.975c.47.827.707 1.75.707 2.766 0 1.006-.236 1.926-.707 2.758a5.426 5.426 0 01-1.917 1.99c-.807.493-1.72.74-2.74.74zm0-.871c.846 0 1.601-.21 2.267-.632a4.59 4.59 0 001.582-1.684 4.672 4.672 0 00.583-2.301 4.7 4.7 0 00-.583-2.316 4.533 4.533 0 00-1.582-1.677c-.666-.417-1.421-.625-2.267-.625-1.263 0-2.342.453-3.236 1.358-.894.905-1.341 1.992-1.341 3.26 0 .832.206 1.6.62 2.301a4.765 4.765 0 001.661 1.684c.695.422 1.46.632 2.296.632z"/></g><defs><clipPath id="eclip0"><path fill="#fff" d="M0 0h70v70H0z"/></clipPath></defs></svg><svg fill="none" viewBox="0 0 18 18" id="map" xmlns="http://www.w3.org/2000/svg"><path d="M9 0a6.526 6.526 0 00-6.519 6.519c0 4.46 5.834 11.01 6.082 11.286.234.26.64.26.874 0 .248-.276 6.082-6.825 6.082-11.286A6.526 6.526 0 009 0zm0 16.514C7.037 14.182 3.655 9.58 3.655 6.519A5.351 5.351 0 019 1.174a5.351 5.351 0 015.345 5.345c0 3.062-3.381 7.662-5.345 9.995z" fill="#EA5546"/><path d="M9 3.24a3.284 3.284 0 00-3.28 3.279A3.284 3.284 0 009 9.799a3.284 3.284 0 003.28-3.28A3.284 3.284 0 009 3.239zm0 5.385a2.108 2.108 0 01-2.106-2.106c0-1.161.945-2.106 2.106-2.106s2.106.945 2.106 2.106A2.108 2.108 0 019 8.625z" fill="#EA5546"/></svg><svg viewBox="0 0 18 18" id="more" xmlns="http://www.w3.org/2000/svg"><path d="M0 8.5h18v1H0v-1z" fill="inherit"/><path d="M9.5 0v18h-1V0h1z" fill="inherit"/></svg><svg fill="none" viewBox="0 0 13 13" id="teacher" xmlns="http://www.w3.org/2000/svg"><path d="M6.713 0a3.432 3.432 0 00-3.428 3.428 3.432 3.432 0 003.428 3.427 3.432 3.432 0 003.428-3.427A3.432 3.432 0 006.713 0zm0 6.094a2.669 2.669 0 01-2.666-2.666A2.669 2.669 0 016.713.762a2.669 2.669 0 012.666 2.666 2.669 2.669 0 01-2.666 2.666zM10.978 9.095a4.887 4.887 0 00-3.503-1.478H5.95c-1.32 0-2.564.525-3.503 1.478A4.995 4.995 0 001 12.619c0 .21.17.381.38.381h10.665c.21 0 .38-.17.38-.38a4.996 4.996 0 00-1.447-3.525zm-9.2 3.143c.191-2.16 1.99-3.86 4.173-3.86h1.524c2.183 0 3.982 1.7 4.172 3.86H1.778z" fill="#EA5546"/></svg><svg viewBox="0 0 18 18" id="teleg" xmlns="http://www.w3.org/2000/svg"><g clip-path="url(#iclip0)"><path d="M17.721 1.788c-.22-.269-.549-.417-.927-.417a1.82 1.82 0 00-.647.129L.91 7.316c-.809.309-.918.772-.91 1.02.006.249.141.705.966.968a.64.64 0 00.015.004l3.16.905 1.71 4.887c.233.666.756 1.08 1.365 1.08.384 0 .762-.16 1.093-.465l1.955-1.8 2.835 2.283h.001l.027.023.007.005c.316.245.66.374.996.374.656 0 1.18-.486 1.331-1.238l2.497-12.327c.1-.495.016-.938-.237-1.247zM5.2 10.041l6.097-3.115L7.5 10.96a.526.526 0 00-.128.235L6.64 14.16l-1.441-4.12zm2.395 4.898c-.025.023-.05.044-.076.063l.68-2.75 1.235.994-1.839 1.693zm9.33-12.114l-2.496 12.328c-.024.118-.101.392-.298.392-.098 0-.22-.053-.346-.15l-3.213-2.586-.001-.002-1.912-1.539 5.49-5.834a.527.527 0 00-.623-.831l-9.03 4.613L1.29 8.3l15.232-5.815a.774.774 0 01.27-.06c.033 0 .09.005.112.03.028.035.063.152.02.37z" fill="inherit"/></g><defs><clipPath id="iclip0"><path d="M0 0h18v18H0z"/></clipPath></defs></svg><svg viewBox="0 0 24 24" id="tell" xmlns="http://www.w3.org/2000/svg"><g clip-path="url(#jclip0)"><path d="M23.382 17.701l-2.984-2.983a2.112 2.112 0 00-2.983 0l-1.356 1.356a1.6 1.6 0 01-2.26 0L7.92 10.191a1.597 1.597 0 010-2.26l1.356-1.356a2.108 2.108 0 00-.001-2.984L6.293.617A2.111 2.111 0 003.312.615L2.225 1.693c-2.967 2.966-2.967 7.792 0 10.758l9.313 9.319a7.603 7.603 0 0010.76 0l1.084-1.085a2.112 2.112 0 000-2.983zM4.304 1.611a.704.704 0 01.995.001l2.983 2.974a.703.703 0 010 .994l-.497.498-3.976-3.976.495-.49zm8.229 19.165l-9.314-9.32a6.183 6.183 0 01-.388-8.343l3.964 3.964a3.002 3.002 0 00.13 4.109l5.879 5.882a3.002 3.002 0 004.109.131l3.964 3.964a6.17 6.17 0 01-8.344-.387zm9.855-1.085l-.498.497-3.978-3.978.498-.498a.704.704 0 01.994 0l2.984 2.984a.704.704 0 010 .994z" fill="inherit"/></g><defs><clipPath id="jclip0"><path fill="inherit" d="M0 0h24v24H0z"/></clipPath></defs></svg><svg fill="none" viewBox="0 0 13 13" id="warning" xmlns="http://www.w3.org/2000/svg"><path d="M6.5 0A6.507 6.507 0 000 6.5C0 10.084 2.916 13 6.5 13S13 10.084 13 6.5 10.084 0 6.5 0zm0 11.818A5.324 5.324 0 011.182 6.5 5.324 5.324 0 016.5 1.182 5.324 5.324 0 0111.818 6.5 5.324 5.324 0 016.5 11.818z" fill="#EA5546"/><path d="M6.5 2.758a.789.789 0 000 1.576.789.789 0 000-1.576zM6.5 5.515a.59.59 0 00-.59.591v3.546a.59.59 0 001.18 0V6.106a.59.59 0 00-.59-.59z" fill="#EA5546"/></svg><svg viewBox="0 0 18 18" id="whatsapp" xmlns="http://www.w3.org/2000/svg"><g clip-path="url(#lclip0)" fill="inherit"><path d="M12.275 8.92a.527.527 0 00-.746 0l-.825.826-2.45-2.45.825-.825a.527.527 0 000-.746L7.082 3.728a.527.527 0 00-.745 0L4.14 5.925a1.942 1.942 0 000 2.743l5.192 5.192c.365.365.852.566 1.371.566.52 0 1.007-.2 1.372-.566l2.197-2.197a.527.527 0 000-.745L12.275 8.92zm-.946 4.194a.878.878 0 01-.626.258.879.879 0 01-.625-.258L4.886 7.922a.886.886 0 010-1.251L6.71 4.847l1.25 1.251-.825.825a.527.527 0 000 .746l3.196 3.195c.206.206.54.206.745 0l.826-.825 1.251 1.251-1.824 1.824z"/><path d="M15.364 2.636A8.942 8.942 0 009 0a8.942 8.942 0 00-6.364 2.636A8.94 8.94 0 000 9c0 1.753.502 3.444 1.453 4.904L.72 16.751a.527.527 0 00.642.642l2.894-.744A8.962 8.962 0 009 18a8.941 8.941 0 006.364-2.636A8.941 8.941 0 0018 9a8.941 8.941 0 00-2.636-6.364zM9 16.946a7.91 7.91 0 01-4.362-1.305.528.528 0 00-.421-.07l-2.252.579.568-2.212a.527.527 0 00-.076-.431A7.899 7.899 0 011.055 9c0-2.122.826-4.117 2.327-5.618A7.894 7.894 0 019 1.055c4.38 0 7.945 3.564 7.945 7.945 0 4.38-3.564 7.945-7.945 7.945z"/></g><defs><clipPath id="lclip0"><path fill="inherit" d="M0 0h18v18H0z"/></clipPath></defs></svg></svg>